<svg id="Layer_1" data-name="Layer 1" xmlns="http://www.w3.org/2000/svg" viewBox="0 0 114 63"><defs><style>.cls-1{fill:#262626;}</style></defs><title>CIC_mainLogo</title><path class="cls-1" d="M76.35,3.07a2,2,0,0,0-.44-.81,1.93,1.93,0,0,0-.81-.43,1.86,1.86,0,0,0-1,0A2.9,2.9,0,0,0,72.65,3c-1.4,2-2.89,3.87-4.35,5.79a14.15,14.15,0,0,1-1.49,1.79,3.43,3.43,0,0,1-1.45.92,2.71,2.71,0,0,1-1.76-.34,17.59,17.59,0,0,0-4.78-1.74A11.93,11.93,0,0,0,50,11.82l-.35.29a.58.58,0,0,1-.35.15l-.49.05a.32.32,0,0,0-.29.29l0,.49a.61.61,0,0,1-.14.33,11.72,11.72,0,0,0-.47,14.74.14.14,0,0,1,0,.19.47.47,0,0,0,0,.64l.68.68.68.68a.45.45,0,0,0,.64,0,.14.14,0,0,1,.19,0,11.75,11.75,0,0,0,14.75-.47.56.56,0,0,1,.33-.15l.48,0a.34.34,0,0,0,.3-.3l0-.49a.66.66,0,0,1,.15-.34l.29-.36a11.75,11.75,0,0,0,2-4,12,12,0,0,0,.35-4.85A17.41,17.41,0,0,0,67,14.58a2.68,2.68,0,0,1-.35-1.76,3.48,3.48,0,0,1,.93-1.46,14.19,14.19,0,0,1,1.78-1.49c1.92-1.46,3.83-2.94,5.8-4.35A2.91,2.91,0,0,0,76.31,4.1,1.9,1.9,0,0,0,76.35,3.07ZM54.14,20.32h-.93v3.21H52.15V20.32h-.93v-.89h2.92Zm4.5,3.21h-1V21.9h-1v1.63H55.53v-4.1h1.06V21h1V19.43h1Zm4.46-3.22H61.47V21h1.41v.87H61.47v.74H63.1v.89H60.42v-4.1H63.1ZM74.27,4.5c-.41.41-.88.61-1,.45s0-.64.45-1.05.87-.61,1-.44S74.68,4.09,74.27,4.5ZM32.72,56.7v1.39H31.33v-.75a.09.09,0,0,0-.07-.09h-1a.09.09,0,0,0-.08.09v2.9a.08.08,0,0,0,.08.08h1a.08.08,0,0,0,.07-.08v-.77h1.39v1.4a.62.62,0,0,1-.63.62H29.38a.61.61,0,0,1-.62-.62V56.7a.62.62,0,0,1,.62-.61h2.71A.63.63,0,0,1,32.72,56.7Zm6.52,0v4.14a.61.61,0,0,1-.64.63H35.83a.6.6,0,0,1-.63-.63V56.72a.6.6,0,0,1,.63-.63H38.6A.61.61,0,0,1,39.24,56.72Zm-1.4.63a.09.09,0,0,0-.08-.09h-1.1a.09.09,0,0,0-.07.09v2.9a.08.08,0,0,0,.07.07h1.1a.08.08,0,0,0,.08-.07Zm5.47-1.26H41.92v5.4H45V60.32H43.31Zm5.49,0H47.41v5.4h3.1V60.32H48.8Zm4.1,5.4h3.53V60.32H54.28v-1h1.86V58.19H54.28v-.94h2.15V56.09H52.9Zm9.35-5.4H59.54a.62.62,0,0,0-.62.61v4.17a.61.61,0,0,0,.62.62h2.71a.62.62,0,0,0,.63-.62v-1.4H61.49v.77a.08.08,0,0,1-.07.08h-1a.08.08,0,0,1-.08-.08v-2.9a.09.09,0,0,1,.08-.09h1a.09.09,0,0,1,.07.09v.75h1.39V56.7A.63.63,0,0,0,62.25,56.09Zm2.65,1.17h1.22v4.23h1.4V57.26h1.22V56.09H64.9ZM71,61.49h1.39v-5.4H71Zm5.83-2-.75-3.43H74.57l1.56,5.4h1.35l1.6-5.4H77.71Zm4.49,2h3.53V60.32H82.68v-1h1.85V58.19H82.68v-.94h2.14V56.09H81.29ZM7.66,51.1a3.49,3.49,0,0,1-3.75-2.91,3.45,3.45,0,0,1,2.57-4,3.27,3.27,0,0,1,3.21,1.54c.43-.64.87-1.27,1.3-1.9a6.7,6.7,0,0,0-4.75-.89c-3.37.57-5.65,3.36-5.17,5.84S4.62,53,7.86,52.45a6.8,6.8,0,0,0,4.08-2.29l-1.8-1.48A3.3,3.3,0,0,1,7.66,51.1Zm13-10q2.59,4.23,5.08,8.5l-2.71.3-1-1.67c-1.48.17-3,.36-4.44.56-.19.62-.37,1.24-.55,1.87L15.22,51q1.36-4.76,2.85-9.49Zm.25,5.27-1.71-2.8c-.33,1-.65,2.09-1,3.13C19.11,46.63,20,46.51,20.9,46.41Zm17.91-.5c-.15-2.52-3.33-3-5.37-2.79-.47,0-2.12,0-2.17-.68s1.13-1.35,2-1.43a4.55,4.55,0,0,1,3.49.91l1.5-.69c-1-1.37-3.49-1.68-5.09-1.55s-5,1.09-4.76,3.22,3.38,3,5.19,2.84c.55,0,1.92.07,2,.87s-.44,1.21-1.77,1.31A6.4,6.4,0,0,1,30,47.11l-1.24.67c1,1.47,3.62,1.52,5.2,1.4C35.79,49,39,48.39,38.81,45.91Zm6,2.35,2.7-.1q-.1-3.61-.22-7.23l2.82-.07c0-.6,0-1.19,0-1.78-2.82.06-5.63.16-8.45.29l.09,1.78c.94,0,1.87-.09,2.81-.12C44.62,43.44,44.71,45.85,44.81,48.26Zm16-3.41c0-.54,0-1.07,0-1.6-2,0-4,0-6,0,0,.53,0,1.06,0,1.59Q57.77,44.79,60.78,44.85Zm7.85-5.58-2.79-.1c-.1,3-.2,6-.29,9l2.7.1C68.38,45.28,68.5,42.27,68.63,39.27ZM82.32,49.2,79.56,49c-.64-1.17-1.3-2.34-2-3.5l-1.68-.12c-.08,1.11-.15,2.22-.23,3.33L73,48.51c.17-3,.35-6,.52-9,2.52.15,5,.33,7.57.54.76.06,2,1.44,1.81,3a3,3,0,0,1-2.53,2.53C81,46.79,81.67,48,82.32,49.2Zm-2.13-6.27a1.11,1.11,0,0,0-1-1.18c-1-.07-2-.15-3-.21,0,.73-.09,1.45-.14,2.18l3,.22A1.12,1.12,0,0,0,80.19,42.93Zm17.89,3.6c-.37,2.5-3.34,4.39-6.6,4s-5.68-3-5.43-5.47,3.22-4.54,6.61-4.12S98.45,44,98.08,46.53Zm-5.55-4.32a3.44,3.44,0,0,0-3.61,3.1,3.22,3.22,0,1,0,6.36.78A3.44,3.44,0,0,0,92.53,42.21ZM110.4,44c-.38,2.1-.77,4.19-1.16,6.29-1.49-2.44-3-4.88-4.62-7.3l-2.34-.37c-.46,3-.93,5.94-1.39,8.9l1.85.3c.28-1.71.55-3.42.83-5.13,1.32,2,2.62,4,3.88,5.93l3.16.59c.57-3,1.13-5.91,1.69-8.86ZM20.46,56.09a.06.06,0,0,0-.12,0,3,3,0,0,1-2.29,2.28.07.07,0,0,0,0,.13,3,3,0,0,1,2.29,2.28.06.06,0,0,0,.12,0,3,3,0,0,1,2.29-2.28.07.07,0,0,0,0-.13A3,3,0,0,1,20.46,56.09Zm73,0a.06.06,0,0,0-.12,0,3,3,0,0,1-2.29,2.28.07.07,0,0,0,0,.13,3,3,0,0,1,2.29,2.28.06.06,0,0,0,.12,0,3,3,0,0,1,2.29-2.28.07.07,0,0,0,0-.13A3,3,0,0,1,93.46,56.09Z"/></svg>